<mxfile host="app.diagrams.net" modified="2023-09-11T10:30:20.815Z" agent="Mozilla/5.0 (Windows NT 10.0; Win64; x64) AppleWebKit/537.36 (KHTML, like Gecko) Chrome/116.0.0.0 Safari/537.36" etag="zryaflok_YYUip9iAzWp" version="21.7.4" type="github">
  <diagram name="페이지-1" id="028IPJTt68LmpmFLLqbW">
    <mxGraphModel dx="1121" dy="712" grid="1" gridSize="10" guides="1" tooltips="1" connect="1" arrows="1" fold="1" page="1" pageScale="1" pageWidth="827" pageHeight="1169" math="0" shadow="0">
      <root>
        <mxCell id="0" />
        <mxCell id="1" parent="0" />
        <mxCell id="_gEU0g24ddU7wiYtJ3MX-1" value="User" style="shape=umlActor;verticalLabelPosition=bottom;verticalAlign=top;html=1;" vertex="1" parent="1">
          <mxGeometry x="100" y="390" width="30" height="60" as="geometry" />
        </mxCell>
        <mxCell id="_gEU0g24ddU7wiYtJ3MX-2" value="게시판 서비스" style="shape=umlFrame;whiteSpace=wrap;html=1;pointerEvents=0;width=100;height=30;" vertex="1" parent="1">
          <mxGeometry x="210" y="230" width="580" height="460" as="geometry" />
        </mxCell>
        <mxCell id="_gEU0g24ddU7wiYtJ3MX-3" value="회원가입" style="rounded=1;whiteSpace=wrap;html=1;arcSize=40;fontColor=#000000;fillColor=#ffffc0;strokeColor=#ff0000;" vertex="1" parent="1">
          <mxGeometry x="240" y="380" width="120" height="40" as="geometry" />
        </mxCell>
        <mxCell id="_gEU0g24ddU7wiYtJ3MX-5" value="게시글 보기" style="rounded=1;whiteSpace=wrap;html=1;arcSize=40;fontColor=#000000;fillColor=#ffffc0;strokeColor=#ff0000;" vertex="1" parent="1">
          <mxGeometry x="240" y="530" width="120" height="40" as="geometry" />
        </mxCell>
        <mxCell id="_gEU0g24ddU7wiYtJ3MX-6" value="게시판 보기" style="rounded=1;whiteSpace=wrap;html=1;arcSize=40;fontColor=#000000;fillColor=#ffffc0;strokeColor=#ff0000;" vertex="1" parent="1">
          <mxGeometry x="240" y="450" width="120" height="40" as="geometry" />
        </mxCell>
        <mxCell id="_gEU0g24ddU7wiYtJ3MX-7" value="회원 로그인" style="rounded=1;whiteSpace=wrap;html=1;arcSize=40;fontColor=#000000;fillColor=#ffffc0;strokeColor=#ff0000;" vertex="1" parent="1">
          <mxGeometry x="430" y="250" width="120" height="40" as="geometry" />
        </mxCell>
        <mxCell id="_gEU0g24ddU7wiYtJ3MX-8" value="게시판 검색" style="rounded=1;whiteSpace=wrap;html=1;arcSize=40;fontColor=#000000;fillColor=#ffffc0;strokeColor=#ff0000;" vertex="1" parent="1">
          <mxGeometry x="510" y="500" width="120" height="40" as="geometry" />
        </mxCell>
        <mxCell id="_gEU0g24ddU7wiYtJ3MX-9" value="인증" style="rounded=1;whiteSpace=wrap;html=1;arcSize=40;fontColor=#000000;fillColor=#ffffc0;strokeColor=#ff0000;" vertex="1" parent="1">
          <mxGeometry x="640" y="250" width="120" height="40" as="geometry" />
        </mxCell>
        <mxCell id="_gEU0g24ddU7wiYtJ3MX-10" value="로그인 실패" style="rounded=1;whiteSpace=wrap;html=1;arcSize=40;fontColor=#000000;fillColor=#ffffc0;strokeColor=#ff0000;" vertex="1" parent="1">
          <mxGeometry x="640" y="310" width="120" height="40" as="geometry" />
        </mxCell>
        <mxCell id="_gEU0g24ddU7wiYtJ3MX-11" value="게시판 정렬하기" style="rounded=1;whiteSpace=wrap;html=1;arcSize=40;fontColor=#000000;fillColor=#ffffc0;strokeColor=#ff0000;" vertex="1" parent="1">
          <mxGeometry x="510" y="450" width="120" height="40" as="geometry" />
        </mxCell>
        <mxCell id="_gEU0g24ddU7wiYtJ3MX-12" value="게시글 &lt;br&gt;쓰기, 수정, 삭제" style="rounded=1;whiteSpace=wrap;html=1;arcSize=40;fontColor=#000000;fillColor=#ffffc0;strokeColor=#ff0000;" vertex="1" parent="1">
          <mxGeometry x="510" y="570" width="120" height="40" as="geometry" />
        </mxCell>
        <mxCell id="_gEU0g24ddU7wiYtJ3MX-13" value="댓글 보기&lt;br&gt;쓰기, 수정, 삭제" style="rounded=1;whiteSpace=wrap;html=1;arcSize=40;fontColor=#000000;fillColor=#ffffc0;strokeColor=#ff0000;" vertex="1" parent="1">
          <mxGeometry x="510" y="620" width="120" height="40" as="geometry" />
        </mxCell>
        <mxCell id="_gEU0g24ddU7wiYtJ3MX-15" value="" style="endArrow=none;html=1;rounded=0;entryX=0;entryY=0.5;entryDx=0;entryDy=0;" edge="1" parent="1" target="_gEU0g24ddU7wiYtJ3MX-5">
          <mxGeometry width="50" height="50" relative="1" as="geometry">
            <mxPoint x="130" y="410" as="sourcePoint" />
            <mxPoint x="420" y="500" as="targetPoint" />
          </mxGeometry>
        </mxCell>
        <mxCell id="_gEU0g24ddU7wiYtJ3MX-16" value="" style="endArrow=none;html=1;rounded=0;entryX=0;entryY=0.5;entryDx=0;entryDy=0;" edge="1" parent="1" target="_gEU0g24ddU7wiYtJ3MX-7">
          <mxGeometry width="50" height="50" relative="1" as="geometry">
            <mxPoint x="130" y="410" as="sourcePoint" />
            <mxPoint x="360" y="270" as="targetPoint" />
          </mxGeometry>
        </mxCell>
        <mxCell id="_gEU0g24ddU7wiYtJ3MX-17" value="" style="endArrow=none;html=1;rounded=0;exitX=1;exitY=0.3333333333333333;exitDx=0;exitDy=0;exitPerimeter=0;entryX=0;entryY=0.5;entryDx=0;entryDy=0;" edge="1" parent="1" source="_gEU0g24ddU7wiYtJ3MX-1" target="_gEU0g24ddU7wiYtJ3MX-6">
          <mxGeometry width="50" height="50" relative="1" as="geometry">
            <mxPoint x="370" y="550" as="sourcePoint" />
            <mxPoint x="420" y="500" as="targetPoint" />
          </mxGeometry>
        </mxCell>
        <mxCell id="_gEU0g24ddU7wiYtJ3MX-18" value="" style="endArrow=none;html=1;rounded=0;entryX=0;entryY=0.5;entryDx=0;entryDy=0;exitX=0.811;exitY=0.381;exitDx=0;exitDy=0;exitPerimeter=0;" edge="1" parent="1" source="_gEU0g24ddU7wiYtJ3MX-1" target="_gEU0g24ddU7wiYtJ3MX-3">
          <mxGeometry width="50" height="50" relative="1" as="geometry">
            <mxPoint x="160" y="420" as="sourcePoint" />
            <mxPoint x="210" y="370" as="targetPoint" />
          </mxGeometry>
        </mxCell>
        <mxCell id="_gEU0g24ddU7wiYtJ3MX-21" value="" style="endArrow=none;html=1;rounded=0;entryX=0;entryY=0.5;entryDx=0;entryDy=0;exitX=1;exitY=0.5;exitDx=0;exitDy=0;dashed=1;startArrow=classic;startFill=1;" edge="1" parent="1" source="_gEU0g24ddU7wiYtJ3MX-7" target="_gEU0g24ddU7wiYtJ3MX-10">
          <mxGeometry width="50" height="50" relative="1" as="geometry">
            <mxPoint x="500" y="350" as="sourcePoint" />
            <mxPoint x="550" y="300" as="targetPoint" />
          </mxGeometry>
        </mxCell>
        <mxCell id="_gEU0g24ddU7wiYtJ3MX-24" value="&amp;lt;&amp;lt; extend &amp;gt;&amp;gt;" style="edgeLabel;html=1;align=center;verticalAlign=middle;resizable=0;points=[];" vertex="1" connectable="0" parent="_gEU0g24ddU7wiYtJ3MX-21">
          <mxGeometry x="0.0144" relative="1" as="geometry">
            <mxPoint as="offset" />
          </mxGeometry>
        </mxCell>
        <mxCell id="_gEU0g24ddU7wiYtJ3MX-22" value="" style="endArrow=none;html=1;rounded=0;exitX=0;exitY=0.5;exitDx=0;exitDy=0;entryX=1;entryY=0.5;entryDx=0;entryDy=0;dashed=1;edgeStyle=orthogonalEdgeStyle;endFill=0;startArrow=classicThin;startFill=1;" edge="1" parent="1" source="_gEU0g24ddU7wiYtJ3MX-9" target="_gEU0g24ddU7wiYtJ3MX-7">
          <mxGeometry width="50" height="50" relative="1" as="geometry">
            <mxPoint x="620" y="280" as="sourcePoint" />
            <mxPoint x="460" y="332" as="targetPoint" />
          </mxGeometry>
        </mxCell>
        <mxCell id="_gEU0g24ddU7wiYtJ3MX-23" value="&amp;lt;&amp;lt; include &amp;gt;&amp;gt;" style="edgeLabel;html=1;align=center;verticalAlign=middle;resizable=0;points=[];" vertex="1" connectable="0" parent="_gEU0g24ddU7wiYtJ3MX-22">
          <mxGeometry x="-0.1022" y="2" relative="1" as="geometry">
            <mxPoint x="-11" y="-2" as="offset" />
          </mxGeometry>
        </mxCell>
        <mxCell id="_gEU0g24ddU7wiYtJ3MX-27" value="" style="endArrow=none;html=1;rounded=0;entryX=1;entryY=0.5;entryDx=0;entryDy=0;exitX=0.5;exitY=1;exitDx=0;exitDy=0;dashed=1;startArrow=classic;startFill=1;" edge="1" parent="1" source="_gEU0g24ddU7wiYtJ3MX-7" target="_gEU0g24ddU7wiYtJ3MX-6">
          <mxGeometry width="50" height="50" relative="1" as="geometry">
            <mxPoint x="470" y="310" as="sourcePoint" />
            <mxPoint x="580" y="400" as="targetPoint" />
          </mxGeometry>
        </mxCell>
        <mxCell id="_gEU0g24ddU7wiYtJ3MX-28" value="&amp;lt;&amp;lt; include &amp;gt;&amp;gt;" style="edgeLabel;html=1;align=center;verticalAlign=middle;resizable=0;points=[];" vertex="1" connectable="0" parent="_gEU0g24ddU7wiYtJ3MX-27">
          <mxGeometry x="0.0144" relative="1" as="geometry">
            <mxPoint as="offset" />
          </mxGeometry>
        </mxCell>
        <mxCell id="_gEU0g24ddU7wiYtJ3MX-29" value="" style="endArrow=none;html=1;rounded=0;entryX=1;entryY=0.5;entryDx=0;entryDy=0;exitX=0.5;exitY=1;exitDx=0;exitDy=0;dashed=1;startArrow=classic;startFill=1;" edge="1" parent="1" source="_gEU0g24ddU7wiYtJ3MX-7" target="_gEU0g24ddU7wiYtJ3MX-5">
          <mxGeometry width="50" height="50" relative="1" as="geometry">
            <mxPoint x="500" y="300" as="sourcePoint" />
            <mxPoint x="370" y="510" as="targetPoint" />
          </mxGeometry>
        </mxCell>
        <mxCell id="_gEU0g24ddU7wiYtJ3MX-30" value="&amp;lt;&amp;lt; include &amp;gt;&amp;gt;" style="edgeLabel;html=1;align=center;verticalAlign=middle;resizable=0;points=[];" vertex="1" connectable="0" parent="_gEU0g24ddU7wiYtJ3MX-29">
          <mxGeometry x="0.0144" relative="1" as="geometry">
            <mxPoint as="offset" />
          </mxGeometry>
        </mxCell>
        <mxCell id="_gEU0g24ddU7wiYtJ3MX-31" value="" style="endArrow=none;html=1;rounded=0;entryX=0;entryY=0.5;entryDx=0;entryDy=0;dashed=1;startArrow=classic;startFill=1;" edge="1" parent="1" target="_gEU0g24ddU7wiYtJ3MX-11">
          <mxGeometry width="50" height="50" relative="1" as="geometry">
            <mxPoint x="360" y="470" as="sourcePoint" />
            <mxPoint x="370" y="560" as="targetPoint" />
          </mxGeometry>
        </mxCell>
        <mxCell id="_gEU0g24ddU7wiYtJ3MX-32" value="&amp;lt;&amp;lt; include &amp;gt;&amp;gt;" style="edgeLabel;html=1;align=center;verticalAlign=middle;resizable=0;points=[];" vertex="1" connectable="0" parent="_gEU0g24ddU7wiYtJ3MX-31">
          <mxGeometry x="0.0144" relative="1" as="geometry">
            <mxPoint as="offset" />
          </mxGeometry>
        </mxCell>
        <mxCell id="_gEU0g24ddU7wiYtJ3MX-33" value="" style="endArrow=none;html=1;rounded=0;entryX=0;entryY=0.5;entryDx=0;entryDy=0;dashed=1;startArrow=classic;startFill=1;" edge="1" parent="1" target="_gEU0g24ddU7wiYtJ3MX-8">
          <mxGeometry width="50" height="50" relative="1" as="geometry">
            <mxPoint x="360" y="470" as="sourcePoint" />
            <mxPoint x="380" y="570" as="targetPoint" />
          </mxGeometry>
        </mxCell>
        <mxCell id="_gEU0g24ddU7wiYtJ3MX-34" value="&amp;lt;&amp;lt; include &amp;gt;&amp;gt;" style="edgeLabel;html=1;align=center;verticalAlign=middle;resizable=0;points=[];" vertex="1" connectable="0" parent="_gEU0g24ddU7wiYtJ3MX-33">
          <mxGeometry x="0.0144" relative="1" as="geometry">
            <mxPoint as="offset" />
          </mxGeometry>
        </mxCell>
        <mxCell id="_gEU0g24ddU7wiYtJ3MX-35" value="" style="endArrow=none;html=1;rounded=0;entryX=0;entryY=0.5;entryDx=0;entryDy=0;dashed=1;startArrow=classic;startFill=1;" edge="1" parent="1" target="_gEU0g24ddU7wiYtJ3MX-12">
          <mxGeometry width="50" height="50" relative="1" as="geometry">
            <mxPoint x="360" y="550" as="sourcePoint" />
            <mxPoint x="510" y="549.71" as="targetPoint" />
          </mxGeometry>
        </mxCell>
        <mxCell id="_gEU0g24ddU7wiYtJ3MX-36" value="&amp;lt;&amp;lt; include &amp;gt;&amp;gt;" style="edgeLabel;html=1;align=center;verticalAlign=middle;resizable=0;points=[];" vertex="1" connectable="0" parent="_gEU0g24ddU7wiYtJ3MX-35">
          <mxGeometry x="0.0144" relative="1" as="geometry">
            <mxPoint as="offset" />
          </mxGeometry>
        </mxCell>
        <mxCell id="_gEU0g24ddU7wiYtJ3MX-37" value="" style="endArrow=none;html=1;rounded=0;entryX=0;entryY=0.5;entryDx=0;entryDy=0;dashed=1;startArrow=classic;startFill=1;" edge="1" parent="1" target="_gEU0g24ddU7wiYtJ3MX-13">
          <mxGeometry width="50" height="50" relative="1" as="geometry">
            <mxPoint x="360" y="550" as="sourcePoint" />
            <mxPoint x="520" y="600" as="targetPoint" />
          </mxGeometry>
        </mxCell>
        <mxCell id="_gEU0g24ddU7wiYtJ3MX-38" value="&amp;lt;&amp;lt; include &amp;gt;&amp;gt;" style="edgeLabel;html=1;align=center;verticalAlign=middle;resizable=0;points=[];" vertex="1" connectable="0" parent="_gEU0g24ddU7wiYtJ3MX-37">
          <mxGeometry x="0.0144" relative="1" as="geometry">
            <mxPoint as="offset" />
          </mxGeometry>
        </mxCell>
        <mxCell id="_gEU0g24ddU7wiYtJ3MX-39" value="DB" style="html=1;dropTarget=0;whiteSpace=wrap;" vertex="1" parent="1">
          <mxGeometry x="810" y="310" width="70" height="105" as="geometry" />
        </mxCell>
        <mxCell id="_gEU0g24ddU7wiYtJ3MX-40" value="" style="shape=module;jettyWidth=8;jettyHeight=4;" vertex="1" parent="_gEU0g24ddU7wiYtJ3MX-39">
          <mxGeometry x="1" width="20" height="20" relative="1" as="geometry">
            <mxPoint x="-27" y="7" as="offset" />
          </mxGeometry>
        </mxCell>
        <mxCell id="_gEU0g24ddU7wiYtJ3MX-41" value="" style="endArrow=none;html=1;rounded=0;entryX=1;entryY=0.5;entryDx=0;entryDy=0;exitX=0;exitY=0.5;exitDx=0;exitDy=0;" edge="1" parent="1" source="_gEU0g24ddU7wiYtJ3MX-39" target="_gEU0g24ddU7wiYtJ3MX-9">
          <mxGeometry width="50" height="50" relative="1" as="geometry">
            <mxPoint x="140" y="420" as="sourcePoint" />
            <mxPoint x="440" y="280" as="targetPoint" />
          </mxGeometry>
        </mxCell>
        <mxCell id="_gEU0g24ddU7wiYtJ3MX-42" value="" style="endArrow=none;html=1;rounded=0;exitX=1;exitY=0.5;exitDx=0;exitDy=0;entryX=0;entryY=0.5;entryDx=0;entryDy=0;" edge="1" parent="1" source="_gEU0g24ddU7wiYtJ3MX-6" target="_gEU0g24ddU7wiYtJ3MX-39">
          <mxGeometry width="50" height="50" relative="1" as="geometry">
            <mxPoint x="150" y="430" as="sourcePoint" />
            <mxPoint x="450" y="290" as="targetPoint" />
            <Array as="points">
              <mxPoint x="590" y="360" />
            </Array>
          </mxGeometry>
        </mxCell>
        <mxCell id="_gEU0g24ddU7wiYtJ3MX-43" value="" style="endArrow=none;html=1;rounded=0;entryX=0;entryY=0.5;entryDx=0;entryDy=0;" edge="1" parent="1" target="_gEU0g24ddU7wiYtJ3MX-39">
          <mxGeometry width="50" height="50" relative="1" as="geometry">
            <mxPoint x="370" y="550" as="sourcePoint" />
            <mxPoint x="820" y="377" as="targetPoint" />
            <Array as="points">
              <mxPoint x="640" y="550" />
            </Array>
          </mxGeometry>
        </mxCell>
        <mxCell id="_gEU0g24ddU7wiYtJ3MX-44" value="" style="endArrow=none;html=1;rounded=0;exitX=1;exitY=0.5;exitDx=0;exitDy=0;entryX=0;entryY=0.5;entryDx=0;entryDy=0;" edge="1" parent="1" source="_gEU0g24ddU7wiYtJ3MX-12" target="_gEU0g24ddU7wiYtJ3MX-39">
          <mxGeometry width="50" height="50" relative="1" as="geometry">
            <mxPoint x="380" y="490" as="sourcePoint" />
            <mxPoint x="830" y="387" as="targetPoint" />
          </mxGeometry>
        </mxCell>
        <mxCell id="_gEU0g24ddU7wiYtJ3MX-45" value="" style="endArrow=none;html=1;rounded=0;exitX=1;exitY=0.5;exitDx=0;exitDy=0;entryX=0;entryY=0.5;entryDx=0;entryDy=0;" edge="1" parent="1" source="_gEU0g24ddU7wiYtJ3MX-13" target="_gEU0g24ddU7wiYtJ3MX-39">
          <mxGeometry width="50" height="50" relative="1" as="geometry">
            <mxPoint x="390" y="500" as="sourcePoint" />
            <mxPoint x="840" y="397" as="targetPoint" />
          </mxGeometry>
        </mxCell>
      </root>
    </mxGraphModel>
  </diagram>
</mxfile>
